<mxfile host="65bd71144e">
    <diagram id="4d1TBi_PGhRXGTXi2tCB" name="Page-1">
        <mxGraphModel dx="1074" dy="389" grid="1" gridSize="10" guides="1" tooltips="1" connect="1" arrows="1" fold="1" page="1" pageScale="1" pageWidth="850" pageHeight="1100" math="0" shadow="0">
            <root>
                <mxCell id="0"/>
                <mxCell id="1" parent="0"/>
                <mxCell id="d91mfsnvNrbqskriMuSQ-3" value="" style="edgeStyle=orthogonalEdgeStyle;rounded=0;orthogonalLoop=1;jettySize=auto;html=1;" parent="1" source="d91mfsnvNrbqskriMuSQ-1" target="d91mfsnvNrbqskriMuSQ-2" edge="1">
                    <mxGeometry relative="1" as="geometry"/>
                </mxCell>
                <mxCell id="d91mfsnvNrbqskriMuSQ-1" value="User uploads images to Story Part, Cover, etc." style="strokeWidth=2;html=1;shape=mxgraph.flowchart.start_2;whiteSpace=wrap;fillColor=#dae8fc;strokeColor=#6c8ebf;" parent="1" vertex="1">
                    <mxGeometry x="50" y="30" width="100" height="100" as="geometry"/>
                </mxCell>
                <mxCell id="d91mfsnvNrbqskriMuSQ-9" value="" style="edgeStyle=orthogonalEdgeStyle;rounded=0;orthogonalLoop=1;jettySize=auto;html=1;" parent="1" source="d91mfsnvNrbqskriMuSQ-2" target="d91mfsnvNrbqskriMuSQ-8" edge="1">
                    <mxGeometry relative="1" as="geometry"/>
                </mxCell>
                <mxCell id="d91mfsnvNrbqskriMuSQ-2" value="&lt;span style=&quot;font-size: 1em ; letter-spacing: -0.005em ; color: rgb(23 , 43 , 77)&quot;&gt;Posts image to Media Service.&lt;/span&gt;&lt;font color=&quot;#172b4d&quot;&gt;&lt;span style=&quot;font-size: 14px&quot;&gt;&lt;br&gt;&lt;/span&gt;&lt;/font&gt;" style="rounded=1;whiteSpace=wrap;html=1;absoluteArcSize=1;arcSize=14;strokeWidth=2;fillColor=#f5f5f5;fontColor=#333333;strokeColor=#666666;" parent="1" vertex="1">
                    <mxGeometry x="210" y="45" width="130" height="70" as="geometry"/>
                </mxCell>
                <mxCell id="d91mfsnvNrbqskriMuSQ-11" value="" style="rounded=0;orthogonalLoop=1;jettySize=auto;html=1;strokeColor=default;entryX=0.11;entryY=0.508;entryDx=0;entryDy=0;entryPerimeter=0;" parent="1" source="d91mfsnvNrbqskriMuSQ-8" target="d91mfsnvNrbqskriMuSQ-10" edge="1">
                    <mxGeometry relative="1" as="geometry"/>
                </mxCell>
                <mxCell id="d91mfsnvNrbqskriMuSQ-8" value="Media Service" style="whiteSpace=wrap;html=1;rounded=1;strokeWidth=2;arcSize=14;fillColor=#fff2cc;strokeColor=#d6b656;" parent="1" vertex="1">
                    <mxGeometry x="395" y="50" width="120" height="60" as="geometry"/>
                </mxCell>
                <mxCell id="d91mfsnvNrbqskriMuSQ-14" value="&lt;div style=&quot;text-align: center&quot;&gt;ImageUploaded&lt;/div&gt;&lt;div style=&quot;text-align: center&quot;&gt;SNS Topic&lt;/div&gt;" style="strokeWidth=2;html=1;shape=mxgraph.flowchart.direct_data;whiteSpace=wrap;fillColor=#d5e8d4;strokeColor=#82b366;" parent="1" vertex="1">
                    <mxGeometry x="570" y="210" width="180" height="60" as="geometry"/>
                </mxCell>
                <mxCell id="d91mfsnvNrbqskriMuSQ-51" value="&lt;span style=&quot;color: rgb(51 , 51 , 51) ; font-size: 12px ; background-color: rgb(248 , 249 , 250)&quot;&gt;Puts image on&lt;/span&gt;" style="edgeStyle=none;rounded=0;orthogonalLoop=1;jettySize=auto;html=1;exitX=0.55;exitY=0.95;exitDx=0;exitDy=0;exitPerimeter=0;entryX=0.5;entryY=0;entryDx=0;entryDy=0;entryPerimeter=0;startArrow=none;startFill=0;endArrow=classic;endFill=1;strokeColor=default;" parent="1" source="d91mfsnvNrbqskriMuSQ-10" target="d91mfsnvNrbqskriMuSQ-14" edge="1">
                    <mxGeometry relative="1" as="geometry"/>
                </mxCell>
                <mxCell id="d91mfsnvNrbqskriMuSQ-10" value="Processes Image: Resizes, Orientation,&lt;br&gt;etc." style="ellipse;shape=cloud;whiteSpace=wrap;html=1;rounded=1;strokeWidth=2;arcSize=14;fillColor=#ffe6cc;strokeColor=#d79b00;" parent="1" vertex="1">
                    <mxGeometry x="550" y="18.75" width="200" height="122.5" as="geometry"/>
                </mxCell>
                <mxCell id="d91mfsnvNrbqskriMuSQ-22" value="" style="edgeStyle=none;rounded=0;orthogonalLoop=1;jettySize=auto;html=1;startArrow=classicThin;startFill=0;endArrow=classic;endFill=1;strokeColor=default;" parent="1" source="d91mfsnvNrbqskriMuSQ-21" target="d91mfsnvNrbqskriMuSQ-14" edge="1">
                    <mxGeometry relative="1" as="geometry"/>
                </mxCell>
                <mxCell id="d91mfsnvNrbqskriMuSQ-23" value="Subscribes" style="edgeLabel;html=1;align=center;verticalAlign=middle;resizable=0;points=[];" parent="d91mfsnvNrbqskriMuSQ-22" vertex="1" connectable="0">
                    <mxGeometry x="-0.4667" y="1" relative="1" as="geometry">
                        <mxPoint x="46" y="1" as="offset"/>
                    </mxGeometry>
                </mxCell>
                <mxCell id="d91mfsnvNrbqskriMuSQ-25" value="" style="edgeStyle=none;rounded=0;orthogonalLoop=1;jettySize=auto;html=1;startArrow=none;startFill=0;endArrow=classic;endFill=1;strokeColor=default;" parent="1" source="d91mfsnvNrbqskriMuSQ-21" target="d91mfsnvNrbqskriMuSQ-24" edge="1">
                    <mxGeometry relative="1" as="geometry"/>
                </mxCell>
                <mxCell id="d91mfsnvNrbqskriMuSQ-21" value="Clarifai Prediction Consumer Service" style="whiteSpace=wrap;html=1;rounded=1;strokeWidth=2;arcSize=14;fillColor=#fff2cc;strokeColor=#d6b656;" parent="1" vertex="1">
                    <mxGeometry x="230" y="210" width="120" height="60" as="geometry"/>
                </mxCell>
                <mxCell id="d91mfsnvNrbqskriMuSQ-29" value="" style="edgeStyle=none;rounded=0;orthogonalLoop=1;jettySize=auto;html=1;startArrow=none;startFill=0;endArrow=classic;endFill=1;strokeColor=default;entryX=0;entryY=0.5;entryDx=0;entryDy=0;" parent="1" source="d91mfsnvNrbqskriMuSQ-24" target="d91mfsnvNrbqskriMuSQ-44" edge="1">
                    <mxGeometry relative="1" as="geometry">
                        <mxPoint x="560" y="370" as="targetPoint"/>
                    </mxGeometry>
                </mxCell>
                <mxCell id="d91mfsnvNrbqskriMuSQ-42" value="" style="edgeStyle=none;rounded=0;orthogonalLoop=1;jettySize=auto;html=1;startArrow=none;startFill=0;endArrow=classic;endFill=1;strokeColor=default;" parent="1" source="d91mfsnvNrbqskriMuSQ-24" target="d91mfsnvNrbqskriMuSQ-41" edge="1">
                    <mxGeometry relative="1" as="geometry"/>
                </mxCell>
                <mxCell id="d91mfsnvNrbqskriMuSQ-24" value="Sends to Clarifai" style="rhombus;whiteSpace=wrap;html=1;rounded=1;strokeColor=#6c8ebf;strokeWidth=2;fillColor=#dae8fc;arcSize=14;" parent="1" vertex="1">
                    <mxGeometry x="250" y="330" width="80" height="80" as="geometry"/>
                </mxCell>
                <mxCell id="d91mfsnvNrbqskriMuSQ-35" value="Cumulative Score&lt;br&gt;is greater than 0.5" style="edgeLabel;resizable=0;html=1;align=center;verticalAlign=middle;labelBackgroundColor=none;" parent="1" connectable="0" vertex="1">
                    <mxGeometry x="429.9950397465783" y="360.00479364054735" as="geometry">
                        <mxPoint x="6" y="-7" as="offset"/>
                    </mxGeometry>
                </mxCell>
                <mxCell id="d91mfsnvNrbqskriMuSQ-37" value="&lt;div style=&quot;text-align: center&quot;&gt;ImageModerated&lt;/div&gt;&lt;div style=&quot;text-align: center&quot;&gt;SNS Topic&lt;/div&gt;" style="strokeWidth=2;html=1;shape=mxgraph.flowchart.direct_data;whiteSpace=wrap;fillColor=#d5e8d4;strokeColor=#82b366;" parent="1" vertex="1">
                    <mxGeometry x="250" y="590" width="180" height="65" as="geometry"/>
                </mxCell>
                <mxCell id="2" value="" style="edgeStyle=none;html=1;" edge="1" parent="1" source="d91mfsnvNrbqskriMuSQ-41" target="d91mfsnvNrbqskriMuSQ-37">
                    <mxGeometry relative="1" as="geometry"/>
                </mxCell>
                <mxCell id="3" value="Puts image status on queue" style="edgeLabel;html=1;align=center;verticalAlign=middle;resizable=0;points=[];" vertex="1" connectable="0" parent="2">
                    <mxGeometry x="-0.1283" y="1" relative="1" as="geometry">
                        <mxPoint as="offset"/>
                    </mxGeometry>
                </mxCell>
                <mxCell id="d91mfsnvNrbqskriMuSQ-41" value="Image is&lt;br&gt;&quot;ok&quot;" style="ellipse;whiteSpace=wrap;html=1;rounded=1;strokeColor=#6c8ebf;strokeWidth=2;fillColor=#dae8fc;arcSize=14;" parent="1" vertex="1">
                    <mxGeometry x="255" y="470" width="70" height="70" as="geometry"/>
                </mxCell>
                <mxCell id="uQtn74tzqgRwQwkcHCnP-2" style="edgeStyle=orthogonalEdgeStyle;rounded=0;orthogonalLoop=1;jettySize=auto;html=1;exitX=0;exitY=1;exitDx=0;exitDy=0;" parent="1" source="d91mfsnvNrbqskriMuSQ-43" edge="1">
                    <mxGeometry relative="1" as="geometry">
                        <mxPoint x="525" y="650" as="targetPoint"/>
                    </mxGeometry>
                </mxCell>
                <mxCell id="d91mfsnvNrbqskriMuSQ-43" value="Sixth Gear Image Moderation (Human)" style="whiteSpace=wrap;html=1;rounded=1;strokeColor=#d6b656;strokeWidth=2;fillColor=#fff2cc;arcSize=14;" parent="1" vertex="1">
                    <mxGeometry x="525" y="590" width="120" height="60" as="geometry"/>
                </mxCell>
                <mxCell id="d91mfsnvNrbqskriMuSQ-44" value="Image is&lt;br&gt;&quot;pending&quot;" style="ellipse;whiteSpace=wrap;html=1;rounded=1;strokeColor=#6c8ebf;strokeWidth=2;fillColor=#dae8fc;arcSize=14;" parent="1" vertex="1">
                    <mxGeometry x="550" y="335" width="70" height="70" as="geometry"/>
                </mxCell>
                <mxCell id="d91mfsnvNrbqskriMuSQ-46" value="&lt;span style=&quot;font-size: 11px&quot;&gt;Human moderation&lt;/span&gt;&lt;br style=&quot;font-size: 11px&quot;&gt;&lt;span style=&quot;font-size: 11px&quot;&gt;decides image status.&lt;br&gt;There is user-messaging, &lt;br&gt;appeals, etc.&lt;/span&gt;" style="ellipse;shape=cloud;whiteSpace=wrap;html=1;rounded=1;strokeWidth=2;arcSize=14;fillColor=#ffe6cc;strokeColor=#d79b00;" parent="1" vertex="1">
                    <mxGeometry x="620" y="520" width="200" height="122.5" as="geometry"/>
                </mxCell>
                <mxCell id="d91mfsnvNrbqskriMuSQ-48" value="" style="endArrow=none;html=1;rounded=0;strokeColor=default;startArrow=classic;startFill=1;endFill=0;entryX=0;entryY=1;entryDx=0;entryDy=0;" parent="1" target="d91mfsnvNrbqskriMuSQ-43" edge="1">
                    <mxGeometry relative="1" as="geometry">
                        <mxPoint x="420" y="650" as="sourcePoint"/>
                        <mxPoint x="480" y="534.5" as="targetPoint"/>
                    </mxGeometry>
                </mxCell>
                <mxCell id="d91mfsnvNrbqskriMuSQ-49" value="Changes in Image status&lt;br&gt;sent to SNS Topic.&lt;br&gt;Can be &quot;banned&quot; or &quot;ok&quot;" style="edgeLabel;resizable=0;html=1;align=center;verticalAlign=middle;labelBackgroundColor=none;" parent="d91mfsnvNrbqskriMuSQ-48" connectable="0" vertex="1">
                    <mxGeometry relative="1" as="geometry">
                        <mxPoint x="7" y="30" as="offset"/>
                    </mxGeometry>
                </mxCell>
                <mxCell id="d91mfsnvNrbqskriMuSQ-53" value="Sends Image to" style="edgeStyle=none;rounded=0;orthogonalLoop=1;jettySize=auto;html=1;entryX=0.5;entryY=0;entryDx=0;entryDy=0;startArrow=none;startFill=0;endArrow=classic;endFill=1;strokeColor=default;" parent="1" target="d91mfsnvNrbqskriMuSQ-43" edge="1">
                    <mxGeometry relative="1" as="geometry">
                        <mxPoint x="584.5" y="405" as="sourcePoint"/>
                        <mxPoint x="584.5" y="495" as="targetPoint"/>
                    </mxGeometry>
                </mxCell>
                <mxCell id="xUNJ6hqU6EIqXM0KdI4q-1" value="Cumulative Score&lt;br&gt;is less than 0.5" style="edgeLabel;resizable=0;html=1;align=center;verticalAlign=middle;labelBackgroundColor=none;" parent="1" connectable="0" vertex="1">
                    <mxGeometry x="329.9950397465783" y="440.00479364054735" as="geometry">
                        <mxPoint x="6" y="-7" as="offset"/>
                    </mxGeometry>
                </mxCell>
                <mxCell id="4" value="" style="edgeStyle=none;html=1;entryX=0.706;entryY=-0.046;entryDx=0;entryDy=0;entryPerimeter=0;" edge="1" parent="1" source="d91mfsnvNrbqskriMuSQ-44" target="d91mfsnvNrbqskriMuSQ-37">
                    <mxGeometry relative="1" as="geometry">
                        <mxPoint x="313.6497677663424" y="547.2286183371971" as="sourcePoint"/>
                        <mxPoint x="336.17021276595756" y="600" as="targetPoint"/>
                    </mxGeometry>
                </mxCell>
                <mxCell id="5" value="Puts image status on queue" style="edgeLabel;html=1;align=center;verticalAlign=middle;resizable=0;points=[];" vertex="1" connectable="0" parent="4">
                    <mxGeometry x="-0.1283" y="1" relative="1" as="geometry">
                        <mxPoint as="offset"/>
                    </mxGeometry>
                </mxCell>
            </root>
        </mxGraphModel>
    </diagram>
</mxfile>